0
SECTION
2
HEADER
9
$INSUNITS
70
4
9
$ACADVER
1
AC1014
9
$HANDSEED
5
FFFF
0
ENDSEC
0
SECTION
2
TABLES
0
TABLE
2
VPORT
5
8
100
AcDbSymbolTable
0
ENDTAB
0
TABLE
2
LTYPE
5
5
100
AcDbSymbolTable
0
LTYPE
5
14
100
AcDbSymbolTableRecord
100
AcDbLinetypeTableRecord
2
BYBLOCK
70
0
0
LTYPE
5
15
100
AcDbSymbolTableRecord
100
AcDbLinetypeTableRecord
2
BYLAYER
70
0
0
ENDTAB
0
TABLE
2
LAYER
5
2
100
AcDbSymbolTable
70
2
0
LAYER
5
50
100
AcDbSymbolTableRecord
100
AcDbLayerTableRecord
2
0
70
0
6
CONTINUOUS
0
ENDTAB
0
TABLE
2
STYLE
5
3
100
AcDbSymbolTable
70
1
0
STYLE
5
11
100
AcDbSymbolTableRecord
100
AcDbTextStyleTableRecord
2
STANDARD
70
0
0
ENDTAB
0
TABLE
2
VIEW
5
6
100
AcDbSymbolTable
70
0
0
ENDTAB
0
TABLE
2
UCS
5
7
100
AcDbSymbolTable
70
0
0
ENDTAB
0
TABLE
2
APPID
5
9
100
AcDbSymbolTable
70
2
0
APPID
5
12
100
AcDbSymbolTableRecord
100
AcDbRegAppTableRecord
2
ACAD
70
0
0
ENDTAB
0
TABLE
2
DIMSTYLE
5
A
100
AcDbSymbolTable
70
1
0
ENDTAB
0
TABLE
2
BLOCK_RECORD
5
1
100
AcDbSymbolTable
70
1
0
BLOCK_RECORD
5
1F
100
AcDbSymbolTableRecord
100
AcDbBlockTableRecord
2
*MODEL_SPACE
0
BLOCK_RECORD
5
1B
100
AcDbSymbolTableRecord
100
AcDbBlockTableRecord
2
*PAPER_SPACE
0
ENDTAB
0
ENDSEC
0
SECTION
2
BLOCKS
0
BLOCK
5
20
100
AcDbEntity
100
AcDbBlockBegin
2
*MODEL_SPACE
0
ENDBLK
5
21
100
AcDbEntity
100
AcDbBlockEnd
0
BLOCK
5
1C
100
AcDbEntity
100
AcDbBlockBegin
2
*PAPER_SPACE
0
ENDBLK
5
1D
100
AcDbEntity
100
AcDbBlockEnd
0
ENDSEC
0
SECTION
2
ENTITIES
0
LWPOLYLINE
5
100
100
AcDbEntity
8
0
100
AcDbPolyline
90
4
70
1
43
0.0
10
-479
20
750.10000000000161
10
-479
20
150.10000000000176
10
-0.99999999999994316
20
150.10000000000176
10
-0.99999999999994316
20
750.10000000000161
0
CIRCLE
5
101
100
AcDbEntity
8
0
100
AcDbCircle
10
-10.000000074505948
20
678.05998989701266
30
-7.4446282471996028e-10
40
2.7499999999999858
210
-2.0301221021717148e-16
220
0
230
1
0
CIRCLE
5
102
100
AcDbEntity
8
0
100
AcDbCircle
10
-10.000000074505877
20
527.18498989701266
30
-7.4446282471996028e-10
40
2.7499999999999858
210
-2.0301221021717148e-16
220
0
230
1
0
CIRCLE
5
103
100
AcDbEntity
8
0
100
AcDbCircle
10
-10.000000074505877
20
376.30998989701266
30
-7.4446282471996028e-10
40
2.7499999999999858
210
-2.0301221021717148e-16
220
0
230
1
0
CIRCLE
5
104
100
AcDbEntity
8
0
100
AcDbCircle
10
-10.000000074505877
20
225.43498989701266
30
-7.4446282471996028e-10
40
2.7499999999999858
210
-2.0301221021717148e-16
220
0
230
1
0
CIRCLE
5
105
100
AcDbEntity
8
0
100
AcDbCircle
10
-470.00000007450586
20
527.18498989701266
30
-4.6074255521943996e-14
40
2.7499999999999858
210
-2.0301221021717148e-16
220
0
230
1
0
CIRCLE
5
106
100
AcDbEntity
8
0
100
AcDbCircle
10
-470.00000007450586
20
376.30998989701266
30
-4.6074255521943996e-14
40
2.7499999999999858
210
-2.0301221021717148e-16
220
0
230
1
0
CIRCLE
5
107
100
AcDbEntity
8
0
100
AcDbCircle
10
-470.00000007450592
20
678.05998989701266
30
-4.6074255521943996e-14
40
2.7499999999999858
210
-2.0301221021717148e-16
220
0
230
1
0
CIRCLE
5
108
100
AcDbEntity
8
0
100
AcDbCircle
10
-470.00000007450586
20
225.43498989701266
30
-4.6074255521943996e-14
40
2.7499999999999858
210
-2.0301221021717148e-16
220
0
230
1
0
LINE
5
109
100
AcDbEntity
8
0
100
AcDbLine
10
-10.000000074505877
20
225.43498989701266
30
-7.4446282471996028e-10
11
-0.99999999999994316
21
225.43498989701266
31
-7.4446282471996028e-10
0
LINE
5
110
100
AcDbEntity
8
0
100
AcDbLine
10
-10.000000074505877
20
225.43498989701266
30
-7.4446282471996028e-10
11
-10.000000074505877
21
150.10000000000176
31
-7.4446282471996028e-10
0
LINE
5
111
100
AcDbEntity
8
0
100
AcDbLine
10
-470.00000007450586
20
225.43498989701266
30
-4.6074255521943996e-14
11
-470.00000007450586
21
150.10000000000176
31
-4.6074255521943996e-14
0
LINE
5
112
100
AcDbEntity
8
0
100
AcDbLine
10
-470.00000007450586
20
225.43498989701266
30
-4.6074255521943996e-14
11
-470.00000007450586
21
376.30998989701266
31
-4.6074255521943996e-14
0
LINE
5
113
100
AcDbEntity
8
0
100
AcDbLine
10
-470.00000007450586
20
376.30998989701266
30
-4.6074255521943996e-14
11
-470.00000007450586
21
527.18498989701266
31
-4.6074255521943996e-14
0
LINE
5
114
100
AcDbEntity
8
0
100
AcDbLine
10
-470.00000007450586
20
527.18498989701266
30
-4.6074255521943996e-14
11
-470.00000007450592
21
678.05998989701266
31
-4.6074255521943996e-14
0
LINE
5
115
100
AcDbEntity
8
0
100
AcDbLine
10
-470.00000007450592
20
678.05998989701266
30
-4.6074255521943996e-14
11
-470.00000007450592
21
750.10000000000161
31
-4.6074255521943996e-14
0
LINE
5
116
100
AcDbEntity
8
0
100
AcDbLine
10
-10.000000074505877
20
225.43498989701266
30
-7.4446282471996028e-10
11
-10.000000074505877
21
376.30998989701266
31
-7.4446282471996028e-10
0
LINE
5
117
100
AcDbEntity
8
0
100
AcDbLine
10
-10.000000074505877
20
376.30998989701266
30
-7.4446282471996028e-10
11
-10.000000074505877
21
527.18498989701266
31
-7.4446282471996028e-10
0
LINE
5
118
100
AcDbEntity
8
0
100
AcDbLine
10
-10.000000074505877
20
527.18498989701266
30
-7.4446282471996028e-10
11
-10.000000074505948
21
678.05998989701266
31
-7.4446282471996028e-10
0
LINE
5
119
100
AcDbEntity
8
0
100
AcDbLine
10
-10.000000074505948
20
678.05998989701266
30
-7.4446282471996028e-10
11
-10.000000074505948
21
750.10000000000161
31
-7.4446282471996028e-10
0
LINE
5
120
100
AcDbEntity
8
0
100
AcDbLine
10
-10.000000074505948
20
678.05998989701266
30
-7.4446282471996028e-10
11
-0.99999999999994316
21
678.05998989701266
31
-7.4446282471996028e-10
0
LINE
5
121
100
AcDbEntity
8
0
100
AcDbLine
10
-10.000000074505877
20
527.18498989701266
30
-7.4446282471996028e-10
11
-0.99999999999994316
21
527.18498989701266
31
-7.4446282471996028e-10
0
LINE
5
122
100
AcDbEntity
8
0
100
AcDbLine
10
-10.000000074505877
20
376.30998989701266
30
-7.4446282471996028e-10
11
-0.99999999999994316
21
376.30998989701266
31
-7.4446282471996028e-10
0
LINE
5
123
100
AcDbEntity
8
0
100
AcDbLine
10
-470.00000007450586
20
225.43498989701266
30
-4.6074255521943996e-14
11
-479.00000713765621
21
225.43498989701266
31
-4.6074255521943996e-14
0
LINE
5
124
100
AcDbEntity
8
0
100
AcDbLine
10
-470.00000007450586
20
376.30998989701266
30
-4.6074255521943996e-14
11
-479
21
376.30998989701266
31
-4.6074255521943996e-14
0
LINE
5
125
100
AcDbEntity
8
0
100
AcDbLine
10
-470.00000007450586
20
527.18498989701266
30
-4.6074255521943996e-14
11
-479
21
527.18498989701266
31
-4.6074255521943996e-14
0
LINE
5
126
100
AcDbEntity
8
0
100
AcDbLine
10
-470.00000007450592
20
678.05998989701266
30
-4.6074255521943996e-14
11
-479
21
678.05998989701266
31
-4.6074255521943996e-14
0
ENDSEC
0
SECTION
2
OBJECTS
0
DICTIONARY
5
C
100
AcDbDictionary
3
ACAD_GROUP
350
D
3
ACAD_MLINESTYLE
350
17
0
DICTIONARY
5
D
100
AcDbDictionary
0
DICTIONARY
5
1A
330
C
100
AcDbDictionary
0
DICTIONARY
5
17
100
AcDbDictionary
0
ENDSEC
0
EOF
